<svg xmlns="http://www.w3.org/2000/svg" width="214.598" height="136.467" viewBox="-72 -72 160.948 102.351"><defs><style>@import url(https://cdn.jsdelivr.net/npm/node-tikzjax@latest/css/fonts.css);</style></defs><g stroke="#000" stroke-miterlimit="10" stroke-width=".4"><path fill="none" d="M-47.014 28.287v-.2m0 .201v-30.73m0-23.9V-57.07m.001.2v-.2h.2m-.201 0h28.453m0 0H9.892m-56.906 0H9.892m-.2 0h.2v.2m0-.2v26.746m0 31.867v26.745m0-85.358v26.746m0 58.412v.2h-56.906"/><g stroke-width=".8"><path fill="none" d="M-58.964-14.392c0 6.6 5.35 11.95 11.95 11.95s11.95-5.35 11.95-11.95-5.35-11.95-11.95-11.95-11.95 5.35-11.95 11.95ZM-47.014-6.027v-16.73"/><path d="M-47.014-18.624h1.992l-1.992-4.232-1.991 4.232h1.991"/></g><g stroke="none"><text x="-47.014" y="28.287" font-family="cmmi10" font-size="10" transform="translate(-23.642 -40.526)">I</text><text x="-42.618" y="29.787" font-family="cmr7" font-size="7" transform="translate(-23.642 -40.526)">0</text></g><text x="-47.014" y="28.287" stroke="none" font-family="cmsy10" font-size="10" transform="translate(4.98 -14.11)">ยก</text><text x="-47.014" y="28.287" stroke="none" font-family="cmr10" font-size="10" transform="translate(4.98 -66.249)">+</text><g stroke="none"><text x="-47.014" y="28.287" font-family="cmmi10" font-size="10" transform="translate(16.939 -40.012)">V</text><text x="-41.18" y="29.787" font-family="cmr7" font-size="7" transform="translate(16.939 -40.012)">0</text></g><path d="M11.485-57.07a1.593 1.593 0 1 0-3.186 0 1.593 1.593 0 0 0 3.186 0ZM-20.304-57.07v1.99l4.233-1.99-4.233-1.992v1.991"/><g stroke="none"><text x="-47.014" y="28.287" font-family="cmmi10" font-size="10" transform="translate(24.012 -90.391)">I</text><text x="-42.618" y="29.787" font-family="cmr7" font-size="7" transform="translate(24.012 -90.391)">0</text></g><g stroke-linejoin="bevel" stroke-width=".8"><path fill="none" d="m9.892-30.725 5.975 3.089-11.95 5.378 11.95 5.377-11.95 5.378 11.95 5.378L3.917-.747l5.975 2.689"/></g><g stroke="none"><text x="-47.014" y="28.287" font-family="cmmi10" font-size="10" transform="translate(65.093 -40.526)">R</text><text x="-39.421" y="29.787" font-family="cmr7" font-size="7" transform="translate(65.093 -40.526)">1</text></g><path d="M9.892-45.44H7.9l1.992 4.232 1.992-4.233H9.892"/><g stroke="none"><text x="-47.014" y="28.287" font-family="cmmi10" font-size="10" transform="translate(45.441 -69.438)">i</text><text x="-43.568" y="29.787" font-family="cmr7" font-size="7" transform="translate(45.441 -69.438)">1</text></g><path fill="none" d="M9.892-57.07h56.905v.2m0-.201v26.746m0 31.867v26.745m0-85.358v26.746m0 58.412v.2h-.2m.2 0H38.345m0 0H9.892m.2 0h-.2"/><g stroke-linejoin="bevel" stroke-width=".8"><path fill="none" d="m66.797-30.725 5.975 3.089-11.95 5.378 11.95 5.377-11.95 5.378 11.95 5.378-11.95 5.378 5.975 2.689"/></g><g stroke="none"><text x="-47.014" y="28.287" font-family="cmmi10" font-size="10" transform="translate(121.998 -40.526)">R</text><text x="-39.421" y="29.787" font-family="cmr7" font-size="7" transform="translate(121.998 -40.526)">2</text></g><path d="M66.797-45.44h-1.991l1.991 4.232 1.992-4.233h-1.992"/><g stroke="none"><text x="-47.014" y="28.287" font-family="cmmi10" font-size="10" transform="translate(102.347 -69.438)">i</text><text x="-43.568" y="29.787" font-family="cmr7" font-size="7" transform="translate(102.347 -69.438)">2</text></g><path d="M11.485 28.287a1.593 1.593 0 1 0-3.186 0 1.593 1.593 0 0 0 3.186 0Zm-1.593 0"/></g></svg>
